<?xml version="1.0" standalone="no"?>
<!DOCTYPE svg PUBLIC "-//W3C//DTD SVG 20010904//EN"
 "http://www.w3.org/TR/2001/REC-SVG-20010904/DTD/svg10.dtd">
<svg version="1.0" xmlns="http://www.w3.org/2000/svg"
 width="500.000000pt" height="500.000000pt" viewBox="0 0 500.000000 500.000000"
 preserveAspectRatio="xMidYMid meet">

<g transform="translate(0.000000,500.000000) scale(0.100000,-0.100000)"
fill="#000000" stroke="none">
<path d="M2158 3423 c7 -3 16 -2 19 1 4 3 -2 6 -13 5 -11 0 -14 -3 -6 -6z"/>
<path d="M2828 3423 c7 -3 16 -2 19 1 4 3 -2 6 -13 5 -11 0 -14 -3 -6 -6z"/>
<path d="M2093 3387 c-16 -18 -34 -32 -39 -30 -6 2 -19 -7 -30 -19 l-19 -23
21 18 c27 23 42 22 21 -1 -10 -10 -15 -21 -11 -24 9 -10 -25 -80 -36 -73 -5 3
-10 0 -10 -9 0 -8 -3 -23 -6 -33 -6 -16 -5 -16 9 2 15 19 17 13 19 -85 1 -58
3 -133 3 -167 1 -34 4 -65 8 -69 4 -4 7 -12 7 -18 0 -6 -7 -2 -15 8 -8 11 -13
29 -9 40 4 15 3 17 -4 8 -16 -24 -32 69 -32 185 1 79 6 123 20 163 10 30 13
48 7 39 -7 -9 -22 -21 -34 -28 -13 -6 -28 -21 -34 -34 -10 -18 -7 -17 14 6 28
29 48 38 26 11 -8 -9 -14 -22 -15 -28 0 -6 -2 -19 -2 -28 -2 -20 -32 -25 -32
-6 0 6 -2 9 -5 7 -7 -8 7 -49 15 -44 8 5 20 -77 20 -143 0 -26 -4 -41 -10 -37
-6 4 -7 -1 -3 -11 5 -12 3 -15 -6 -9 -10 6 -11 3 -2 -13 6 -12 17 -24 24 -28
9 -5 9 -4 0 7 -21 22 -15 34 7 14 11 -10 18 -20 16 -23 -18 -17 151 -163 188
-161 15 1 12 3 -11 10 -18 5 -35 15 -39 21 -5 8 -2 9 11 4 15 -5 16 -4 5 9
-10 12 -15 13 -21 4 -10 -17 -40 32 -56 94 -20 76 -27 231 -14 312 17 110 31
147 66 182 18 18 29 33 25 33 -4 0 -21 -15 -37 -33z m-32 -554 c13 -15 12 -15
-8 -4 -24 12 -29 21 -14 21 5 0 15 -7 22 -17z"/>
<path d="M2214 3399 c14 -11 26 -25 26 -31 0 -5 -14 2 -31 16 -17 14 -36 26
-43 26 -25 0 -64 -39 -59 -58 6 -24 -23 -95 -36 -88 -5 3 -11 -4 -15 -17 -10
-36 -6 -54 7 -27 9 20 12 -8 17 -151 4 -96 10 -181 15 -189 6 -10 4 -12 -8 -7
-10 3 -17 4 -17 1 0 -13 32 -65 37 -60 4 3 12 1 20 -6 23 -19 23 -4 1 53 -20
48 -22 72 -23 224 0 155 2 175 23 227 13 32 28 60 33 64 6 3 4 -8 -5 -24 -63
-122 -60 -445 4 -534 24 -33 25 -38 3 -38 -9 0 -14 -2 -11 -5 14 -14 61 10 82
41 12 19 25 31 28 28 7 -6 28 53 27 75 -1 9 -5 5 -10 -9 -7 -21 -8 -20 -4 9 3
18 6 45 6 60 1 22 3 21 10 -9 7 -33 7 -32 6 13 l-2 47 206 0 207 0 -5 -40 c-3
-23 -1 -40 4 -40 5 0 8 -15 6 -32 -2 -22 -1 -27 5 -15 6 14 10 8 21 -28 16
-56 60 -105 93 -104 16 1 18 3 6 6 -23 6 -22 8 2 41 35 47 52 161 48 312 -3
93 -2 123 5 95 15 -71 3 -292 -21 -360 -11 -33 -16 -62 -11 -63 5 -2 6 -9 2
-15 -4 -7 1 -6 10 2 19 15 23 26 5 15 -7 -4 -8 -3 -4 5 4 6 11 9 16 6 5 -3 16
8 25 24 19 38 19 42 -2 34 -13 -5 -15 -3 -8 13 4 10 11 96 14 189 6 144 9 166
19 145 l13 -25 -6 25 c-2 14 -5 31 -5 38 0 7 -4 11 -10 7 -13 -8 -42 52 -38
82 2 18 -5 31 -23 45 -32 24 -61 18 -97 -21 -21 -22 -23 -23 -13 -4 6 12 21
29 33 37 12 9 18 16 12 16 -22 0 -83 -85 -70 -98 3 -3 6 1 6 8 0 7 2 11 5 9 2
-3 -2 -27 -10 -54 -8 -26 -16 -62 -16 -79 l-2 -31 -8 35 c-7 33 -7 32 -6 -12
1 -27 -2 -50 -8 -52 -5 -3 -1 -5 11 -5 18 -1 22 6 27 53 6 60 31 116 51 116 7
0 19 -7 27 -16 11 -14 10 -15 -6 -12 -23 4 -50 -41 -59 -99 -5 -38 -4 -42 16
-45 20 -3 23 -9 23 -48 l0 -45 -282 -3 c-156 -1 -283 1 -283 5 0 5 126 7 280
5 246 -2 280 -1 280 13 0 13 -35 15 -280 15 l-280 0 0 30 c0 29 2 30 48 31 26
0 42 3 37 5 -6 2 -10 23 -8 47 2 39 1 40 -7 12 -8 -25 -9 -20 -6 25 2 30 1 46
-1 36 -4 -13 -11 -3 -24 35 -22 65 -22 62 -7 53 7 -5 8 -2 3 7 -14 24 -48 59
-58 59 -5 0 2 -9 17 -21z m656 -85 c17 -52 7 -51 -11 1 -9 25 -13 42 -8 40 4
-3 13 -21 19 -41z m-628 -35 c10 -13 21 -49 25 -79 7 -63 -4 -62 -18 2 -14 59
-35 89 -57 81 -15 -6 -15 -5 -3 10 17 21 29 18 53 -14z m-53 -138 c-8 -37 -8
-65 0 -102 13 -59 7 -76 -10 -33 -15 39 -15 145 1 173 18 34 22 20 9 -38z
m639 -44 c3 -64 0 -86 -12 -102 -16 -19 -16 -18 -9 20 10 52 10 100 0 150 -7
33 -6 38 5 27 8 -8 14 -44 16 -95z m-561 -116 c-10 -88 -46 -133 -76 -97 -10
12 -9 13 7 9 16 -4 23 4 35 39 9 23 18 55 21 71 10 46 19 30 13 -22z m479 22
c20 -89 26 -104 46 -112 13 -5 17 -10 11 -14 -30 -19 -56 19 -72 106 -9 49 4
67 15 20z m-29 -35 c-3 -8 -6 -5 -6 6 -1 11 2 17 5 13 3 -3 4 -12 1 -19z"/>
<path d="M2895 3387 c39 -39 52 -79 67 -205 21 -170 -15 -351 -80 -402 -13
-11 -21 -20 -17 -20 4 0 21 11 39 25 38 31 88 75 66 58 -28 -22 -35 -14 -10
12 12 13 26 23 29 22 14 -4 91 68 91 85 -1 7 -7 1 -15 -13 -8 -15 -22 -30 -32
-33 -14 -6 -14 -3 4 16 15 16 20 31 16 51 -7 36 7 178 17 172 8 -5 22 36 15
44 -3 2 -5 -1 -5 -7 0 -19 -30 -14 -32 6 0 9 -2 22 -2 28 -1 6 -7 19 -15 28
-12 14 -12 16 3 10 9 -3 23 -18 31 -33 8 -14 14 -20 15 -13 0 7 -12 24 -26 37
-41 37 -42 38 -70 70 -26 30 -26 30 -5 1 12 -16 28 -51 36 -79 20 -69 20 -247
-1 -317 -26 -88 -36 -42 -28 131 6 137 9 150 22 133 14 -18 14 -18 8 -1 -3 10
-6 25 -6 33 0 9 -5 12 -10 9 -11 -7 -45 63 -36 73 4 3 0 12 -8 21 -8 9 -15 19
-15 24 -1 8 -65 67 -74 67 -3 0 10 -15 28 -33z"/>
<path d="M2711 3264 c0 -11 3 -14 6 -6 3 7 2 16 -1 19 -3 4 -6 -2 -5 -13z"/>
<path d="M1900 3160 c0 -5 1 -13 3 -17 1 -4 -11 -10 -28 -13 l-30 -6 33 -5
c30 -5 32 -4 32 23 0 15 -2 28 -5 28 -3 0 -5 -4 -5 -10z"/>
<path d="M3091 3090 c0 -47 3 -79 6 -72 2 6 18 12 33 12 54 0 50 49 -4 51
l-31 1 30 8 30 8 -27 1 c-16 0 -28 5 -28 10 0 5 12 12 28 14 l27 4 -28 2 c-16
0 -26 5 -23 9 2 4 1 14 -5 22 -5 10 -8 -15 -8 -70z m69 -40 c0 -5 -15 -9 -32
-9 l-33 1 30 8 c17 4 31 8 33 9 1 0 2 -3 2 -9z"/>
<path d="M2363 3123 c75 -2 199 -2 275 0 75 1 13 3 -138 3 -151 0 -213 -2
-137 -3z"/>
<path d="M1821 3092 c-2 -39 17 -62 49 -62 15 0 31 -6 33 -12 3 -7 6 4 6 25 1
36 0 37 -35 37 -43 0 -42 -22 2 -31 l29 -7 -32 -1 c-28 -1 -34 3 -39 27 -9 43
-12 49 -13 24z"/>
<path d="M1863 3093 c9 -2 23 -2 30 0 6 3 -1 5 -18 5 -16 0 -22 -2 -12 -5z"/>
<path d="M2730 2841 c0 -23 76 -91 101 -90 22 1 22 1 -4 9 -36 11 -55 27 -79
65 -10 17 -18 24 -18 16z"/>
<path d="M2224 2794 c-17 -18 -28 -34 -24 -34 7 0 43 38 54 58 12 20 3 13 -30
-24z"/>
<path d="M2169 2601 c-24 -19 -24 -19 -27 -285 l-3 -266 46 0 45 0 0 245 0
245 35 0 35 0 0 -245 0 -245 45 0 45 0 0 245 0 245 35 0 35 0 0 -245 0 -245
45 0 45 0 0 260 0 261 -25 24 c-32 33 -119 36 -157 5 -25 -19 -26 -19 -43 0
-25 28 -123 28 -156 1z"/>
<path d="M2645 2595 c-22 -21 -25 -33 -25 -89 l0 -66 45 22 c37 18 45 27 45
50 0 25 3 28 35 28 l35 0 0 -65 0 -65 -70 -35 c-48 -24 -74 -44 -80 -61 -6
-14 -10 -79 -10 -145 l0 -119 125 0 125 0 0 40 0 40 -80 0 -80 0 0 75 0 74 72
38 c85 45 92 60 86 186 -4 104 -19 117 -125 117 -65 0 -77 -3 -98 -25z"/>
<path d="M2200 1740 c0 -53 4 -90 10 -90 6 0 10 18 10 40 0 33 3 40 20 40 11
0 20 5 20 10 0 6 -9 10 -20 10 -16 0 -20 7 -20 30 0 25 4 30 24 30 14 0 28 5
31 10 4 6 -10 10 -34 10 l-41 0 0 -90z"/>
<path d="M2290 1740 c0 -53 4 -90 10 -90 6 0 10 37 10 90 0 53 -4 90 -10 90
-6 0 -10 -37 -10 -90z"/>
<path d="M2325 1820 c3 -5 13 -10 21 -10 11 0 14 -17 14 -80 0 -47 4 -80 10
-80 6 0 10 33 10 80 0 64 3 80 15 80 8 0 15 5 15 10 0 6 -21 10 -46 10 -27 0
-43 -4 -39 -10z"/>
<path d="M2432 1738 l2 -93 5 70 6 70 23 -67 c13 -38 28 -68 33 -68 5 0 9 41
9 90 0 53 -4 90 -10 90 -5 0 -10 -26 -11 -57 l0 -58 -17 54 c-28 89 -42 78
-40 -31z"/>
<path d="M2530 1740 l0 -90 40 0 c22 0 40 5 40 10 0 6 -13 10 -30 10 -27 0
-30 3 -30 30 0 25 4 30 25 30 14 0 25 5 25 10 0 6 -11 10 -25 10 -21 0 -25 5
-25 30 0 27 3 30 30 30 17 0 30 5 30 10 0 6 -18 10 -40 10 l-40 0 0 -90z"/>
<path d="M2630 1811 c-12 -24 1 -57 32 -79 22 -16 25 -62 3 -62 -7 0 -18 8
-24 17 -14 26 -25 9 -11 -17 8 -15 19 -20 38 -18 41 5 42 49 3 94 -17 19 -31
39 -31 45 0 19 31 21 46 3 14 -18 14 -18 12 6 -4 34 -51 41 -68 11z"/>
<path d="M2726 1814 c-11 -28 -6 -43 24 -77 35 -40 39 -67 10 -67 -11 0 -20 7
-20 15 0 8 -4 15 -10 15 -14 0 -13 -23 2 -38 17 -17 55 -15 62 4 12 31 6 51
-24 79 -35 33 -40 65 -10 65 11 0 20 -7 20 -15 0 -8 5 -15 10 -15 11 0 13 11
4 34 -4 9 -18 16 -34 16 -16 0 -30 -7 -34 -16z"/>
</g>
</svg>
